<svg width="512" height="512" viewBox="0 0 512 512" xmlns="http://www.w3.org/2000/svg">
  <defs>
    <linearGradient id="grad1" x1="0%" y1="0%" x2="100%" y2="100%">
      <stop offset="0%" style="stop-color:#2196F3;stop-opacity:1" />
      <stop offset="100%" style="stop-color:#1976D2;stop-opacity:1" />
    </linearGradient>
  </defs>
  
  <!-- Background circle -->
  <circle cx="256" cy="256" r="240" fill="url(#grad1)" stroke="#0D47A1" stroke-width="4"/>
  
  <!-- 3D Printer base -->
  <rect x="140" y="300" width="232" height="120" rx="8" fill="#37474F" stroke="#263238" stroke-width="2"/>
  
  <!-- 3D Printer frame -->
  <rect x="160" y="180" width="192" height="140" rx="4" fill="none" stroke="#37474F" stroke-width="6"/>
  
  <!-- Print bed -->
  <rect x="180" y="280" width="152" height="8" rx="4" fill="#546E7A"/>
  
  <!-- Extruder head -->
  <circle cx="256" cy="240" r="16" fill="#FF5722"/>
  <rect x="246" y="224" width="20" height="12" rx="2" fill="#D84315"/>
  
  <!-- Filament -->
  <path d="M 256 224 Q 280 200 300 180" stroke="#4CAF50" stroke-width="4" fill="none"/>
  
  <!-- Control panel -->
  <rect x="380" y="320" width="60" height="40" rx="4" fill="#263238"/>
  <circle cx="395" cy="335" r="3" fill="#4CAF50"/>
  <circle cx="410" cy="335" r="3" fill="#FF5722"/>
  <circle cx="425" cy="335" r="3" fill="#2196F3"/>
  
  <!-- WiFi signal -->
  <path d="M 100 120 Q 120 100 140 120" stroke="#FFFFFF" stroke-width="3" fill="none"/>
  <path d="M 90 130 Q 120 90 150 130" stroke="#FFFFFF" stroke-width="3" fill="none"/>
  <path d="M 80 140 Q 120 80 160 140" stroke="#FFFFFF" stroke-width="3" fill="none"/>
  
  <!-- "3D" text -->
  <text x="256" y="450" font-family="Arial, sans-serif" font-size="48" font-weight="bold" text-anchor="middle" fill="#FFFFFF">3D</text>
</svg>
